<?xml version="1.0" encoding="UTF-8" standalone="no"?><!DOCTYPE svg PUBLIC "-//W3C//DTD SVG 1.1//EN" "http://www.w3.org/Graphics/SVG/1.1/DTD/svg11.dtd"><svg width="100%" height="100%" viewBox="0 0 1080 1080" version="1.1" xmlns="http://www.w3.org/2000/svg" xmlns:xlink="http://www.w3.org/1999/xlink" xml:space="preserve" xmlns:serif="http://www.serif.com/" style="fill-rule:evenodd;clip-rule:evenodd;stroke-linejoin:round;stroke-miterlimit:2;"><g><path d="M149.969,302.422l0,-3.055l390.031,-216.684l390.031,216.684l0,3.785l-190.623,110.287l-3.597,0l-197.61,-114.073l-196.978,113.708l-191.255,-110.653Z" style="fill:url(#_Linear1);"/><path d="M930.031,303.152l0,475.2l-196.906,110.543l-194.454,-110.559l197.139,-114.057l3.597,0l0,-250.841l190.623,-110.287Zm-248.918,614.944l-141.113,79.221l-390.031,-218.965l0,-162.245l531.145,301.988Zm-531.145,-360.761l0,-254.914l191.255,110.653l-0.632,0.365l0,250.841l143.665,83.119l-334.288,-190.063Z" style="fill:url(#_Linear2);"/><path d="M538.202,299.367l3.623,239.493l-201.233,125.42l0,-250.841l197.61,-114.073Z" style="fill:url(#_Linear3);"/><path d="M739.408,413.439l0,247.951l-197.583,-122.53l-3.623,-239.493l197.61,114.073l3.597,0Z" style="fill:url(#_Linear4);"/><path d="M735.811,664.28l-197.61,114.073l-197.61,-114.073l201.233,-125.42l197.583,122.53l0,2.89l-3.597,0Z" style="fill:url(#_Linear5);"/></g><defs><linearGradient id="_Linear1" x1="0" y1="0" x2="1" y2="0" gradientUnits="userSpaceOnUse" gradientTransform="matrix(-591.603081,-131.863337,131.863337,-591.603081,869.445528,379.924239)"><stop offset="0" style="stop-color:#0a7b34;stop-opacity:1"/><stop offset="0.2" style="stop-color:#1e9e63;stop-opacity:1"/><stop offset="0.42" style="stop-color:#33c294;stop-opacity:1"/><stop offset="1" style="stop-color:#3cd3aa;stop-opacity:1"/></linearGradient><linearGradient id="_Linear2" x1="0" y1="0" x2="1" y2="0" gradientUnits="userSpaceOnUse" gradientTransform="matrix(790.969535,-184.119279,184.119279,790.969535,181.610551,722.978836)"><stop offset="0" style="stop-color:#168557;stop-opacity:1"/><stop offset="1" style="stop-color:#00a196;stop-opacity:1"/></linearGradient><linearGradient id="_Linear3" x1="0" y1="0" x2="1" y2="0" gradientUnits="userSpaceOnUse" gradientTransform="matrix(-100.616332,-262.329396,262.329396,-100.616332,441.208375,580.086537)"><stop offset="0" style="stop-color:#017650;stop-opacity:1"/><stop offset="1" style="stop-color:#00b87b;stop-opacity:1"/></linearGradient><linearGradient id="_Linear4" x1="0" y1="0" x2="1" y2="0" gradientUnits="userSpaceOnUse" gradientTransform="matrix(-348.883024,-336.410185,336.410185,-348.883024,759.574053,621.387555)"><stop offset="0" style="stop-color:#01584e;stop-opacity:1"/><stop offset="1" style="stop-color:#00e88a;stop-opacity:1"/></linearGradient><linearGradient id="_Linear5" x1="0" y1="0" x2="1" y2="0" gradientUnits="userSpaceOnUse" gradientTransform="matrix(229.54981,-131.924325,131.924325,229.54981,441.208375,722.670264)"><stop offset="0" style="stop-color:#3cc68a;stop-opacity:1"/><stop offset="1" style="stop-color:#006a52;stop-opacity:1"/></linearGradient></defs></svg>